<?xml version="1.0" encoding="UTF-8"?>
<!DOCTYPE svg PUBLIC "-//W3C//DTD SVG 1.1//EN" "http://www.w3.org/Graphics/SVG/1.1/DTD/svg11.dtd">
<svg xmlns="http://www.w3.org/2000/svg" version="1.1" width="500px" height="500px" style="shape-rendering:geometricPrecision; text-rendering:geometricPrecision; image-rendering:optimizeQuality; fill-rule:evenodd; clip-rule:evenodd" xmlns:xlink="http://www.w3.org/1999/xlink">
<g><path style="opacity:0.984" fill="#fafafa" d="M 244.5,144.5 C 243.29,144.932 242.29,145.599 241.5,146.5C 237.317,147.154 234.484,145.488 233,141.5C 229.476,127.841 225.642,114.674 221.5,102C 221.762,100.022 222.428,97.8556 223.5,95.5C 224.268,94.7375 224.768,93.7375 225,92.5C 228.498,92.797 231.498,94.1304 234,96.5C 235.469,101.588 237.302,106.421 239.5,111C 238.978,111.561 238.645,112.228 238.5,113C 242.075,120.62 244.742,128.953 246.5,138C 245.167,139.333 245.167,140.667 246.5,142C 245.619,142.708 244.953,143.542 244.5,144.5 Z"/></g>
<g><path style="opacity:0.977" fill="#fafafa" d="M 265.5,144.5 C 264.833,144.5 264.5,144.833 264.5,145.5C 258.693,148.382 255.026,146.549 253.5,140C 257.061,124.984 261.228,110.151 266,95.5C 271.547,92.3509 275.381,93.8509 277.5,100C 275.575,107.731 273.575,115.064 271.5,122C 271.645,122.772 271.978,123.439 272.5,124C 270.574,126.642 269.241,129.642 268.5,133C 268.735,133.873 269.069,134.707 269.5,135.5C 269.154,136.696 268.654,136.696 268,135.5C 267.654,137.218 267.154,138.885 266.5,140.5C 266.709,141.086 267.043,141.586 267.5,142C 266.244,142.417 265.577,143.25 265.5,144.5 Z"/></g>
<g><path style="opacity:0.051" fill="#eaebea" d="M 223.5,95.5 C 222.833,94.1667 222.833,94.1667 223.5,95.5 Z"/></g>
<g><path style="opacity:0.004" fill="#fefffe" d="M 191.5,112.5 C 192.833,113.167 192.833,113.167 191.5,112.5 Z"/></g>
<g><path style="opacity:0.971" fill="#fcfcfc" d="M 194.5,114.5 C 196.5,117.167 198.833,119.5 201.5,121.5C 203.167,123.833 205.167,125.833 207.5,127.5C 208.5,129.167 209.833,130.5 211.5,131.5C 211.833,132.5 212.5,133.167 213.5,133.5C 213.833,134.5 214.5,135.167 215.5,135.5C 216.833,137.5 218.5,139.167 220.5,140.5C 221.542,142.791 223.042,143.791 225,143.5C 225.359,146.544 226.026,146.878 227,144.5C 228.399,147.021 228.899,149.521 228.5,152C 224.318,157.271 219.652,157.771 214.5,153.5C 212.326,151.919 209.993,150.419 207.5,149C 209.612,147.783 209.279,146.617 206.5,145.5C 206.167,144.167 205.833,144.167 205.5,145.5C 204.833,144.5 204.167,143.5 203.5,142.5C 203.5,141.833 203.167,141.5 202.5,141.5C 201.992,139.767 201.159,139.434 200,140.5C 198.513,139.747 198.346,138.914 199.5,138C 198.747,136.513 197.914,136.346 197,137.5C 195.513,136.747 195.346,135.914 196.5,135C 195.627,133.955 194.627,133.122 193.5,132.5C 193.167,131.167 192.833,131.167 192.5,132.5C 191.833,131.5 191.167,130.5 190.5,129.5C 189.746,127.495 188.579,126.828 187,127.5C 185.519,126.529 184.685,125.196 184.5,123.5C 185.613,122.054 185.78,120.387 185,118.5C 184.667,119.5 184.333,120.5 184,121.5C 183.244,119.191 183.744,117.191 185.5,115.5C 186.086,115.709 186.586,116.043 187,116.5C 188.204,115.529 188.704,114.529 188.5,113.5C 190.409,114.348 192.409,114.682 194.5,114.5 Z"/></g>
<g><path style="opacity:0.024" fill="#fefffe" d="M 194.5,113.5 C 195.833,114.167 195.833,114.167 194.5,113.5 Z"/></g>
<g><path style="opacity:0.024" fill="#fefffe" d="M 308.5,113.5 C 309.833,114.167 309.833,114.167 308.5,113.5 Z"/></g>
<g><path style="opacity:0.996" fill="#fdfdfd" d="M 310.5,116.5 C 311.167,116.833 311.833,117.167 312.5,117.5C 314.369,121.954 313.369,125.62 309.5,128.5C 302.527,134.806 295.86,141.473 289.5,148.5C 286.396,151.101 283.396,153.934 280.5,157C 276.671,157.758 273.338,156.758 270.5,154C 271.109,152.052 271.776,150.218 272.5,148.5C 283.298,138.202 293.965,127.702 304.5,117C 306.473,116.505 308.473,116.338 310.5,116.5 Z"/></g>
<g><path style="opacity:0.004" fill="#fefffe" d="M 312.5,116.5 C 313.833,117.167 313.833,117.167 312.5,116.5 Z"/></g>
<g><path style="opacity:0.016" fill="#fefffe" d="M 299.5,119.5 C 298.833,118.167 298.833,118.167 299.5,119.5 Z"/></g>
<g><path style="opacity:0.004" fill="#fefffe" d="M 201.5,120.5 C 202.833,121.167 202.833,121.167 201.5,120.5 Z"/></g>
<g><path style="opacity:0.02" fill="#fefffe" d="M 297.5,121.5 C 296.833,120.167 296.833,120.167 297.5,121.5 Z"/></g>
<g><path style="opacity:0.867" fill="#eaeaea" d="M 310.5,116.5 C 308.473,116.338 306.473,116.505 304.5,117C 293.965,127.702 283.298,138.202 272.5,148.5C 271.697,147.577 271.53,146.577 272,145.5C 273.958,145.791 275.458,144.791 276.5,142.5C 279.088,140.582 281.755,137.916 284.5,134.5C 285.5,134.167 286.167,133.5 286.5,132.5C 287.833,131.833 288.833,130.833 289.5,129.5C 292.5,127.167 295.167,124.5 297.5,121.5C 298.5,121.167 299.167,120.5 299.5,119.5C 302.449,115.655 306.116,114.655 310.5,116.5 Z"/></g>
<g><path style="opacity:0.004" fill="#fefffe" d="M 184.5,123.5 C 183.833,122.167 183.833,122.167 184.5,123.5 Z"/></g>
<g><path style="opacity:0.008" fill="#fefffe" d="M 207.5,126.5 C 208.833,127.167 208.833,127.167 207.5,126.5 Z"/></g>
<g><path style="opacity:0.02" fill="#fefffe" d="M 289.5,129.5 C 288.833,128.167 288.833,128.167 289.5,129.5 Z"/></g>
<g><path style="opacity:0.012" fill="#fefffe" d="M 309.5,128.5 C 310.833,129.167 310.833,129.167 309.5,128.5 Z"/></g>
<g><path style="opacity:0.024" fill="#fefffe" d="M 190.5,129.5 C 189.833,130.167 189.833,130.167 190.5,129.5 Z"/></g>
<g><path style="opacity:0.024" fill="#fefffe" d="M 211.5,130.5 C 212.833,131.167 212.833,131.167 211.5,130.5 Z"/></g>
<g><path style="opacity:0.008" fill="#fefffe" d="M 286.5,132.5 C 285.833,131.167 285.833,131.167 286.5,132.5 Z"/></g>
<g><path style="opacity:0.004" fill="#fefffe" d="M 192.5,132.5 C 192.833,132.5 193.167,132.5 193.5,132.5C 193.315,133.17 192.981,133.17 192.5,132.5 Z"/></g>
<g><path style="opacity:0.024" fill="#fefffe" d="M 213.5,132.5 C 214.833,133.167 214.833,133.167 213.5,132.5 Z"/></g>
<g><path style="opacity:0.016" fill="#fefffe" d="M 284.5,134.5 C 283.833,133.167 283.833,133.167 284.5,134.5 Z"/></g>
<g><path style="opacity:0.004" fill="#fefffe" d="M 215.5,134.5 C 216.833,135.167 216.833,135.167 215.5,134.5 Z"/></g>
<g><path style="opacity:0.016" fill="#fefffe" d="M 230.5,138.5 C 231.833,139.167 231.833,139.167 230.5,138.5 Z"/></g>
<g><path style="opacity:0.008" fill="#fefffe" d="M 220.5,139.5 C 221.833,140.167 221.833,140.167 220.5,139.5 Z"/></g>
<g><path style="opacity:0.016" fill="#fefffe" d="M 202.5,141.5 C 203.167,141.5 203.5,141.833 203.5,142.5C 203.44,143.043 203.107,143.376 202.5,143.5C 201.227,142.743 201.227,142.077 202.5,141.5 Z"/></g>
<g><path style="opacity:0.016" fill="#fefffe" d="M 276.5,142.5 C 275.833,141.167 275.833,141.167 276.5,142.5 Z"/></g>
<g><path style="opacity:0.012" fill="#fefffe" d="M 244.5,144.5 C 245.833,145.167 245.833,145.167 244.5,144.5 Z"/></g>
<g><path style="opacity:0.039" fill="#fefffe" d="M 265.5,144.5 C 266.833,145.167 266.833,145.167 265.5,144.5 Z"/></g>
<g><path style="opacity:0.012" fill="#fefffe" d="M 205.5,145.5 C 205.833,145.5 206.167,145.5 206.5,145.5C 206.315,146.17 205.981,146.17 205.5,145.5 Z"/></g>
<g><path style="opacity:0.008" fill="#fefffe" d="M 264.5,145.5 C 264.833,145.5 265.167,145.5 265.5,145.5C 265.315,146.17 264.981,146.17 264.5,145.5 Z"/></g>
<g><path style="opacity:0.012" fill="#fefffe" d="M 241.5,146.5 C 242.833,147.167 242.833,147.167 241.5,146.5 Z"/></g>
<g><path style="opacity:0.004" fill="#fefffe" d="M 289.5,148.5 C 290.833,149.167 290.833,149.167 289.5,148.5 Z"/></g>
<g><path style="opacity:0.004" fill="#fefffe" d="M 214.5,153.5 C 213.833,154.167 213.833,154.167 214.5,153.5 Z"/></g>
<g><path style="opacity:0.004" fill="#fefffe" d="M 346.5,166.5 C 345.833,165.167 345.833,165.167 346.5,166.5 Z"/></g>
<g><path style="opacity:0.978" fill="#f8f8f8" d="M 169.5,171.5 C 180.135,176.151 190.135,181.151 199.5,186.5C 201.5,188.671 203.334,191.004 205,193.5C 226.311,190.811 235.645,200.145 233,221.5C 231.337,225.496 229.171,229.163 226.5,232.5C 237.141,243.962 237.141,255.962 226.5,268.5C 225.038,269.458 223.705,270.624 222.5,272C 224.354,274.543 225.521,277.376 226,280.5C 226.097,284.766 226.263,288.932 226.5,293C 223.313,296.528 220.479,300.361 218,304.5C 217.667,304.167 217.333,303.833 217,303.5C 214.243,305.795 211.077,306.795 207.5,306.5C 207.731,310.993 207.064,315.326 205.5,319.5C 204.599,320.29 203.932,321.29 203.5,322.5C 200.165,327.356 195.498,330.522 189.5,332C 163.5,332.667 137.5,332.667 111.5,332C 106.269,331.534 101.102,330.7 96,329.5C 95.228,329.645 94.5613,329.978 94,330.5C 93.0475,328.408 91.7141,328.075 90,329.5C 87.2185,327.192 84.0518,325.525 80.5,324.5C 80.1667,323.167 79.8333,323.167 79.5,324.5C 76.9234,323.13 74.2567,321.13 71.5,318.5C 70.7375,317.732 69.7375,317.232 68.5,317C 57.8333,316.667 47.1667,316.333 36.5,316C 34.9559,315.71 33.6226,315.044 32.5,314C 32.8333,313.667 33.1667,313.333 33.5,313C 32.8095,311.933 32.3095,310.766 32,309.5C 31.3333,281.833 31.3333,254.167 32,226.5C 32.4101,225.099 32.9101,223.766 33.5,222.5C 34.6049,221.4 35.9382,220.733 37.5,220.5C 39.1667,220.5 40.8333,220.5 42.5,220.5C 49.1921,220.335 55.8587,220.668 62.5,221.5C 67.976,221.365 73.1426,220.365 78,218.5C 79.7165,219.552 80.7165,218.886 81,216.5C 82.073,217.28 83.2396,217.113 84.5,216C 88.7036,211.964 92.7036,207.798 96.5,203.5C 100.861,200.444 104.028,196.444 106,191.5C 106.333,191.833 106.667,192.167 107,192.5C 109.04,190.63 110.873,188.63 112.5,186.5C 116.254,181.964 120.588,177.298 125.5,172.5C 131.719,168.596 138.552,166.596 146,166.5C 154.088,167.031 161.922,168.698 169.5,171.5 Z M 166.5,180.5 C 170.562,181.124 174.062,182.791 177,185.5C 182.624,186.339 187.791,188.673 192.5,192.5C 193.5,192.833 194.167,193.5 194.5,194.5C 197.051,195.775 198.051,197.609 197.5,200C 198.167,200.333 198.833,200.667 199.5,201C 197.601,210.5 193.934,219.5 188.5,228C 187.262,235.434 185.262,242.934 182.5,250.5C 179.072,251.211 175.905,251.211 173,250.5C 170.518,249.961 168.352,248.961 166.5,247.5C 165.662,247.158 165.328,246.492 165.5,245.5C 164.046,242.282 163.379,238.782 163.5,235C 162.719,224.672 165.885,215.839 173,208.5C 174.144,205.92 174.978,203.253 175.5,200.5C 174.849,199.909 174.182,199.243 173.5,198.5C 169.835,200.841 166.501,203.507 163.5,206.5C 163.068,207.71 162.401,208.71 161.5,209.5C 161.068,210.71 160.401,211.71 159.5,212.5C 159.672,211.508 159.338,210.842 158.5,210.5C 156.163,208.035 154.663,205.035 154,201.5C 152.921,199.606 151.587,199.273 150,200.5C 149.069,202.459 148.236,204.459 147.5,206.5C 148.963,211.193 150.296,215.526 151.5,219.5C 151.833,220.833 152.167,220.833 152.5,219.5C 153.315,220.429 154.148,221.429 155,222.5C 155.792,229.247 155.626,235.914 154.5,242.5C 153.167,242.833 153.167,243.167 154.5,243.5C 152.833,245.833 150.833,247.833 148.5,249.5C 147.242,248.984 146.242,249.65 145.5,251.5C 140.865,257.502 135.531,262.169 129.5,265.5C 127.849,266.97 126.015,268.303 124,269.5C 123.667,269.167 123.333,268.833 123,268.5C 121.491,271.725 119.324,273.558 116.5,274C 117.662,274.827 118.829,275.66 120,276.5C 124.673,275.111 129.173,273.445 133.5,271.5C 137.658,268.586 141.991,265.919 146.5,263.5C 147.5,262.833 148.5,262.167 149.5,261.5C 150.833,261.167 150.833,260.833 149.5,260.5C 150.452,259.548 151.452,258.548 152.5,257.5C 153.522,257.855 154.189,258.522 154.5,259.5C 151.833,259.833 151.833,260.167 154.5,260.5C 154.918,261.222 155.584,261.722 156.5,262C 150.787,265.928 148.12,271.428 148.5,278.5C 146.969,279.925 147.302,280.591 149.5,280.5C 149.586,282.677 150.253,284.677 151.5,286.5C 150.643,287.425 149.643,288.092 148.5,288.5C 147.166,291.423 145.5,293.423 143.5,294.5C 144.809,298.698 144.809,302.864 143.5,307C 144.756,307.417 145.423,308.25 145.5,309.5C 147.804,312.141 150.138,314.808 152.5,317.5C 151.167,317.833 151.167,318.167 152.5,318.5C 152.783,319.289 153.283,319.956 154,320.5C 157.06,319.398 157.893,320.398 156.5,323.5C 136.064,325.059 115.73,324.226 95.5,321C 92.8673,320.577 90.7006,319.41 89,317.5C 87.2513,318.299 85.918,317.632 85,315.5C 82.2144,315.724 79.381,314.391 76.5,311.5C 74.5401,311.149 72.7068,309.816 71,307.5C 60.9158,308.486 50.7491,308.819 40.5,308.5C 40.5,281.833 40.5,255.167 40.5,228.5C 51.817,229.493 63.1503,229.66 74.5,229C 77.6272,228.608 80.6272,227.775 83.5,226.5C 84.086,226.709 84.586,227.043 85,227.5C 92.7066,219.969 99.8732,212.635 106.5,205.5C 110.861,200.807 115.195,196.141 119.5,191.5C 120.833,189.5 122.5,187.833 124.5,186.5C 124.833,185.5 125.5,184.833 126.5,184.5C 126.932,183.29 127.599,182.29 128.5,181.5C 128.833,182.833 129.167,182.833 129.5,181.5C 133.357,177.264 138.69,174.93 145.5,174.5C 153.015,175.125 160.015,177.125 166.5,180.5 Z M 224.5,218.5 C 224.598,220.553 223.931,222.22 222.5,223.5C 221.101,226.39 218.768,227.89 215.5,228C 209.833,228.667 204.167,228.667 198.5,228C 203.095,219.657 206.095,210.824 207.5,201.5C 212.777,200.931 217.777,201.765 222.5,204C 222.167,204.333 221.833,204.667 221.5,205C 222.5,206 223.5,207 224.5,208C 224.167,208.333 223.833,208.667 223.5,209C 224.704,210.353 225.371,212.019 225.5,214C 225.492,215.707 225.158,217.207 224.5,218.5 Z M 223.5,243.5 C 227.594,252.691 225.261,260.024 216.5,265.5C 213.748,265.762 210.748,265.762 207.5,265.5C 206.994,263.895 206.327,263.561 205.5,264.5C 196.51,263.406 187.51,262.406 178.5,261.5C 178.5,261.167 178.5,260.833 178.5,260.5C 180.861,260.326 183.194,259.993 185.5,259.5C 186.793,257.704 188.293,256.037 190,254.5C 191.842,248.973 193.676,243.473 195.5,238C 203.436,236.47 211.436,236.137 219.5,237C 220.12,239.295 221.454,241.462 223.5,243.5 Z M 169.5,258.5 C 167.208,259.846 165.208,259.512 163.5,257.5C 165.556,256.839 167.556,257.172 169.5,258.5 Z M 169.5,258.5 C 171.861,258.674 174.194,259.007 176.5,259.5C 176.5,260.167 176.167,260.5 175.5,260.5C 173.102,260.741 171.102,260.074 169.5,258.5 Z M 212.5,296.5 C 212.082,297.222 211.416,297.722 210.5,298C 207.167,298.667 203.833,298.667 200.5,298C 187.561,293.798 174.561,289.798 161.5,286C 161.077,284.491 159.91,282.991 158,281.5C 154.94,272.41 158.107,268.077 167.5,268.5C 183.842,270.119 199.842,272.453 215.5,275.5C 217.063,280.081 217.73,284.914 217.5,290C 216.763,292.901 215.097,295.068 212.5,296.5 Z M 198.5,309.5 C 199.201,314.612 197.201,318.779 192.5,322C 187.022,324.181 181.356,324.848 175.5,324C 168.672,319.001 162.005,313.834 155.5,308.5C 156.833,308.167 156.833,307.833 155.5,307.5C 152.11,304.276 151.777,300.776 154.5,297C 153.346,296.086 153.513,295.253 155,294.5C 155.333,295.167 155.667,295.833 156,296.5C 156.249,295.376 156.749,294.376 157.5,293.5C 170.885,297.349 184.218,301.516 197.5,306C 198.337,307.011 198.67,308.178 198.5,309.5 Z"/></g>
<g><path style="opacity:0.979" fill="#f8f8f8" d="M 346.5,166.5 C 358.473,165.047 368.806,168.381 377.5,176.5C 380.897,180.158 383.897,183.491 386.5,186.5C 391.54,191.848 396.207,196.848 400.5,201.5C 404.5,206.167 408.833,210.5 413.5,214.5C 415.193,217.682 417.859,219.348 421.5,219.5C 426.148,220.454 430.981,221.12 436,221.5C 444.474,221.161 452.808,220.161 461,218.5C 462.624,220.158 464.291,221.825 466,223.5C 466.251,225.433 466.751,227.266 467.5,229C 466.189,254.194 466.189,279.694 467.5,305.5C 467.425,310.379 465.592,314.379 462,317.5C 451.577,316.348 441.077,316.181 430.5,317C 427.301,318.003 424.801,319.837 423,322.5C 422.667,322.167 422.333,321.833 422,321.5C 419.079,323.712 415.912,325.545 412.5,327C 404.044,329.743 395.377,331.409 386.5,332C 360.833,332.667 335.167,332.667 309.5,332C 299.995,329.557 294.162,323.724 292,314.5C 291.503,311.854 291.336,309.187 291.5,306.5C 288.728,306.78 286.228,306.113 284,304.5C 282.16,305.833 281.66,305.666 282.5,304C 280.34,302.668 278.34,301.168 276.5,299.5C 271.364,290.286 271.364,281.12 276.5,272C 274.63,269.96 272.63,268.127 270.5,266.5C 270.167,265.167 269.833,265.167 269.5,266.5C 267.821,262.453 266.155,258.453 264.5,254.5C 264.305,250.085 264.805,245.751 266,241.5C 268.167,238.5 270.333,235.5 272.5,232.5C 272.145,231.478 271.478,230.811 270.5,230.5C 270.573,228.973 269.906,227.973 268.5,227.5C 266.123,224.274 265.123,220.607 265.5,216.5C 265.5,214.833 265.5,213.167 265.5,211.5C 268.484,195.992 277.817,189.992 293.5,193.5C 298.356,187.4 304.356,182.734 311.5,179.5C 312.492,179.672 313.158,179.338 313.5,178.5C 324.963,173.478 335.963,169.478 346.5,166.5 Z M 374.5,186.5 C 386.171,198.172 397.505,210.172 408.5,222.5C 410.749,223.08 412.415,224.413 413.5,226.5C 428.342,229.729 443.342,230.396 458.5,228.5C 458.5,255.167 458.5,281.833 458.5,308.5C 448.161,308.334 437.828,308.5 427.5,309C 426.255,309.791 424.922,310.291 423.5,310.5C 417.03,316.041 408.697,319.874 398.5,322C 379.558,324.013 360.558,324.847 341.5,324.5C 341.5,323.167 340.833,322.5 339.5,322.5C 341.205,320.808 343.205,319.475 345.5,318.5C 346.167,317.167 347.167,316.167 348.5,315.5C 351.256,312.982 353.256,309.982 354.5,306.5C 354.381,301.788 354.381,297.288 354.5,293C 352.816,291.791 351.483,290.291 350.5,288.5C 346.87,287.447 346.537,285.78 349.5,283.5C 350.207,280.214 350.54,276.881 350.5,273.5C 349.512,270.924 348.512,268.257 347.5,265.5C 346.257,263.836 344.59,262.669 342.5,262C 343.624,261.751 344.624,261.251 345.5,260.5C 345.376,259.893 345.043,259.56 344.5,259.5C 344.351,258.448 344.517,257.448 345,256.5C 348.38,258.717 351.213,261.384 353.5,264.5C 354.492,264.328 355.158,264.662 355.5,265.5C 362.593,269.713 369.927,273.38 377.5,276.5C 379.103,276.688 380.437,276.188 381.5,275C 374.431,269.48 367.431,263.98 360.5,258.5C 357.891,257.557 355.891,255.89 354.5,253.5C 350.5,250.833 347.167,247.5 344.5,243.5C 343.576,236.838 343.243,230.172 343.5,223.5C 344.521,222.099 345.521,220.765 346.5,219.5C 348.622,215.877 350.289,211.544 351.5,206.5C 350.628,204.55 349.961,202.55 349.5,200.5C 348.142,199.374 346.808,199.374 345.5,200.5C 343.856,203.858 342.19,207.191 340.5,210.5C 339.167,210.833 339.167,211.167 340.5,211.5C 340.631,212.239 340.464,212.906 340,213.5C 337.824,210.471 335.657,207.471 333.5,204.5C 331.833,203.5 330.5,202.167 329.5,200.5C 327.716,199.28 326.05,199.28 324.5,200.5C 322.015,201.26 322.015,202.26 324.5,203.5C 324.33,204.822 324.663,205.989 325.5,207C 324.833,207.333 324.167,207.667 323.5,208C 327.807,209.532 329.973,212.365 330,216.5C 330.333,216.167 330.667,215.833 331,215.5C 332.923,217.119 333.423,218.952 332.5,221C 333.684,222.18 334.351,223.68 334.5,225.5C 336.141,232.416 335.808,239.083 333.5,245.5C 333.586,246.496 333.252,247.329 332.5,248C 329.688,249.549 326.688,250.382 323.5,250.5C 321.307,251.797 318.973,251.797 316.5,250.5C 312.1,235.046 306.6,220.046 300,205.5C 299.333,203.833 299.333,202.167 300,200.5C 302.121,197.134 304.287,194.467 306.5,192.5C 307.29,191.599 308.29,190.932 309.5,190.5C 316.724,188.332 323.724,184.998 330.5,180.5C 337.489,177.498 345.155,175.498 353.5,174.5C 362.548,175.183 369.548,179.183 374.5,186.5 Z M 296.5,220.5 C 297.465,223.161 298.798,225.661 300.5,228C 293.433,228.839 286.433,228.506 279.5,227C 273.518,221.213 272.018,214.379 275,206.5C 275.92,206.07 276.753,205.736 277.5,205.5C 277.291,204.914 276.957,204.414 276.5,204C 281.223,201.765 286.223,200.931 291.5,201.5C 292.114,208.025 293.781,214.359 296.5,220.5 Z M 308.5,255.5 C 308.5,256.167 308.833,256.5 309.5,256.5C 310.5,257.167 311.5,257.833 312.5,258.5C 311.167,258.833 311.167,259.167 312.5,259.5C 312.842,260.338 313.508,260.672 314.5,260.5C 314.389,261.117 314.056,261.617 313.5,262C 303.457,263.338 293.457,264.838 283.5,266.5C 282.452,265.452 281.452,264.452 280.5,263.5C 273.125,258.003 271.458,251.337 275.5,243.5C 275.845,240.802 277.178,238.802 279.5,237.5C 287.391,236.331 295.225,236.331 303,237.5C 305.634,243.546 307.467,249.546 308.5,255.5 Z M 335.5,257.5 C 335.158,258.338 334.492,258.672 333.5,258.5C 333.409,256.302 334.075,255.969 335.5,257.5 Z M 333.5,258.5 C 329.756,260.152 325.756,260.652 321.5,260C 325.519,258.477 329.519,257.977 333.5,258.5 Z M 317.5,291.5 C 311.571,293.535 305.571,295.701 299.5,298C 296.167,298.667 292.833,298.667 289.5,298C 287.68,297.8 286.347,296.966 285.5,295.5C 286.547,294.922 286.38,294.256 285,293.5C 284.601,293.728 284.435,294.062 284.5,294.5C 282.534,293.745 282.2,292.579 283.5,291C 282.833,290.667 282.167,290.333 281.5,290C 281.5,286.333 281.5,282.667 281.5,279C 282.257,277.488 283.257,276.154 284.5,275C 298.43,272.678 312.096,270.678 325.5,269C 330.287,268.121 334.953,268.455 339.5,270C 342.629,275.845 341.962,281.178 337.5,286C 330.901,288.145 324.235,289.978 317.5,291.5 Z M 331.5,317.5 C 331.158,318.338 330.492,318.672 329.5,318.5C 328.162,320.67 326.328,322.336 324,323.5C 319.288,324.675 314.455,324.675 309.5,323.5C 301.785,320.071 298.951,314.404 301,306.5C 301.671,305.748 302.504,305.414 303.5,305.5C 303.833,306.833 304.167,306.833 304.5,305.5C 314.788,301.183 325.454,297.85 336.5,295.5C 344.336,291.916 347.502,294.582 346,303.5C 342.671,309.661 337.838,314.328 331.5,317.5 Z"/></g>
<g><path style="opacity:0.008" fill="#fefffe" d="M 169.5,170.5 C 170.833,171.167 170.833,171.167 169.5,170.5 Z"/></g>
<g><path style="opacity:0.004" fill="#fefffe" d="M 125.5,172.5 C 124.833,171.167 124.833,171.167 125.5,172.5 Z"/></g>
<g><path style="opacity:0.008" fill="#fefffe" d="M 377.5,175.5 C 378.833,176.167 378.833,176.167 377.5,175.5 Z"/></g>
<g><path style="opacity:0.031" fill="#fefffe" d="M 313.5,178.5 C 312.833,177.167 312.833,177.167 313.5,178.5 Z"/></g>
<g><path style="opacity:0.024" fill="#fefffe" d="M 311.5,179.5 C 310.833,178.167 310.833,178.167 311.5,179.5 Z"/></g>
<g><path style="opacity:0.024" fill="#fefffe" d="M 112.5,186.5 C 111.833,185.167 111.833,185.167 112.5,186.5 Z"/></g>
<g><path style="opacity:0.02" fill="#fefffe" d="M 199.5,185.5 C 200.833,186.167 200.833,186.167 199.5,185.5 Z"/></g>
<g><path style="opacity:0.012" fill="#fefffe" d="M 386.5,185.5 C 387.833,186.167 387.833,186.167 386.5,185.5 Z"/></g>
<g><path style="opacity:0.502" fill="#a2a2a2" d="M 324.5,200.5 C 324.5,201.5 324.5,202.5 324.5,203.5C 322.015,202.26 322.015,201.26 324.5,200.5 Z"/></g>
<g><path style="opacity:0.004" fill="#fefffe" d="M 400.5,200.5 C 401.833,201.167 401.833,201.167 400.5,200.5 Z"/></g>
<g><path style="opacity:0.016" fill="#fefffe" d="M 96.5,203.5 C 95.8333,202.167 95.8333,202.167 96.5,203.5 Z"/></g>
<g><path style="opacity:0.502" fill="#a6a6a6" d="M 265.5,211.5 C 265.5,213.167 265.5,214.833 265.5,216.5C 264.761,216.631 264.094,216.464 263.5,216C 264.711,214.887 264.711,213.72 263.5,212.5C 263.957,211.702 264.624,211.369 265.5,211.5 Z"/></g>
<g><path style="opacity:0.027" fill="#fefffe" d="M 413.5,213.5 C 414.833,214.167 414.833,214.167 413.5,213.5 Z"/></g>
<g><path style="opacity:0.004" fill="#fefffe" d="M 421.5,218.5 C 422.833,219.167 422.833,219.167 421.5,218.5 Z"/></g>
<g><path style="opacity:0.502" fill="#919191" d="M 42.5,220.5 C 40.8333,220.5 39.1667,220.5 37.5,220.5C 37.369,219.761 37.5357,219.094 38,218.5C 39.6225,219.099 41.1225,219.766 42.5,220.5 Z"/></g>
<g><path style="opacity:0.008" fill="#fefffe" d="M 33.5,222.5 C 32.8333,221.167 32.8333,221.167 33.5,222.5 Z"/></g>
<g><path style="opacity:0.004" fill="#fefffe" d="M 268.5,227.5 C 267.833,228.167 267.833,228.167 268.5,227.5 Z"/></g>
<g><path style="opacity:0.013" fill="#fefffe" d="M 270.5,230.5 C 270.483,232.028 269.816,232.528 268.5,232C 269.044,231.283 269.711,230.783 270.5,230.5 Z"/></g>
<g><path style="opacity:0.008" fill="#fefffe" d="M 267.5,235.5 C 268.833,236.167 268.833,236.167 267.5,235.5 Z"/></g>
<g><path style="opacity:0.008" fill="#fefffe" d="M 264.5,254.5 C 263.833,255.167 263.833,255.167 264.5,254.5 Z"/></g>
<g><path style="opacity:0.502" fill="#7f807f" d="M 176.5,259.5 C 177.167,259.833 177.833,260.167 178.5,260.5C 178.5,260.833 178.5,261.167 178.5,261.5C 177.209,261.737 176.209,261.404 175.5,260.5C 176.167,260.5 176.5,260.167 176.5,259.5 Z"/></g>
<g><path style="opacity:0.502" fill="#9e9e9e" d="M 207.5,265.5 C 206.508,265.672 205.842,265.338 205.5,264.5C 206.327,263.561 206.994,263.895 207.5,265.5 Z"/></g>
<g><path style="opacity:0.012" fill="#fefffe" d="M 269.5,266.5 C 269.833,266.5 270.167,266.5 270.5,266.5C 270.315,267.17 269.981,267.17 269.5,266.5 Z"/></g>
<g><path style="opacity:0.008" fill="#fefffe" d="M 226.5,268.5 C 227.833,269.167 227.833,269.167 226.5,268.5 Z"/></g>
<g><path style="opacity:0.502" fill="#9e9e9e" d="M 148.5,278.5 C 149.338,278.842 149.672,279.508 149.5,280.5C 147.302,280.591 146.969,279.925 148.5,278.5 Z"/></g>
<g><path style="opacity:0.004" fill="#fefffe" d="M 276.5,299.5 C 275.833,300.167 275.833,300.167 276.5,299.5 Z"/></g>
<g><path style="opacity:0.008" fill="#fefffe" d="M 288.5,307.5 C 289.833,308.167 289.833,308.167 288.5,307.5 Z"/></g>
<g><path style="opacity:0.008" fill="#fefffe" d="M 71.5,318.5 C 70.8333,319.167 70.8333,319.167 71.5,318.5 Z"/></g>
<g><path style="opacity:0.004" fill="#fefffe" d="M 291.5,318.5 C 292.833,319.167 292.833,319.167 291.5,318.5 Z"/></g>
<g><path style="opacity:0.024" fill="#fefffe" d="M 205.5,319.5 C 206.833,320.167 206.833,320.167 205.5,319.5 Z"/></g>
<g><path style="opacity:0.016" fill="#fefffe" d="M 203.5,322.5 C 204.833,323.167 204.833,323.167 203.5,322.5 Z"/></g>
<g><path style="opacity:0.502" fill="#9a9a9a" d="M 339.5,322.5 C 340.833,322.5 341.5,323.167 341.5,324.5C 339.801,324.66 338.134,324.494 336.5,324C 337.737,323.768 338.737,323.268 339.5,322.5 Z"/></g>
<g><path style="opacity:0.012" fill="#fefffe" d="M 79.5,324.5 C 79.8333,324.5 80.1667,324.5 80.5,324.5C 80.3147,325.17 79.9813,325.17 79.5,324.5 Z"/></g>
<g><path style="opacity:0.004" fill="#fefffe" d="M 217.5,342.5 C 216.833,341.167 216.833,341.167 217.5,342.5 Z"/></g>
<g><path style="opacity:0.983" fill="#fcfcfc" d="M 224.5,354.5 C 223.5,354.833 222.833,355.5 222.5,356.5C 220.5,357.833 218.833,359.5 217.5,361.5C 215.617,363.398 213.617,365.231 211.5,367C 211.833,367.333 212.167,367.667 212.5,368C 211.263,368.232 210.263,368.732 209.5,369.5C 207.5,370.833 205.833,372.5 204.5,374.5C 203.5,374.833 202.833,375.5 202.5,376.5C 200.167,378.167 198.167,380.167 196.5,382.5C 193.904,383.265 191.237,383.599 188.5,383.5C 188.5,382.833 188.167,382.5 187.5,382.5C 187.5,381.833 187.167,381.5 186.5,381.5C 186.167,380.167 185.833,380.167 185.5,381.5C 183.302,381.591 182.969,380.925 184.5,379.5C 185.833,378.167 185.833,376.833 184.5,375.5C 187.452,373.508 190.118,370.508 192.5,366.5C 193.325,365.614 194.325,365.281 195.5,365.5C 196.704,363.266 197.87,360.933 199,358.5C 199.718,359.451 200.551,359.617 201.5,359C 203.069,355.903 205.402,353.737 208.5,352.5C 208.5,351.5 208.5,350.5 208.5,349.5C 210.619,349.532 211.952,348.532 212.5,346.5C 214.754,345.876 216.421,344.543 217.5,342.5C 219.47,341.838 221.47,341.172 223.5,340.5C 223.109,341.891 223.942,342.891 226,343.5C 226.333,343.167 226.667,342.833 227,342.5C 227.3,345.663 227.467,348.83 227.5,352C 226.058,352.377 225.058,353.21 224.5,354.5 Z"/></g>
<g><path style="opacity:0.012" fill="#fefffe" d="M 274.5,342.5 C 273.833,341.167 273.833,341.167 274.5,342.5 Z"/></g>
<g><path style="opacity:0.994" fill="#fbfbfb" d="M 274.5,342.5 C 277.602,342.154 280.435,342.821 283,344.5C 283.333,344.167 283.667,343.833 284,343.5C 284.232,344.737 284.732,345.737 285.5,346.5C 286.833,348.5 288.5,350.167 290.5,351.5C 292.833,354.5 295.5,357.167 298.5,359.5C 299.833,361.5 301.5,363.167 303.5,364.5C 306.86,368.025 310.027,371.691 313,375.5C 313.891,378.498 313.391,381.164 311.5,383.5C 310.508,383.328 309.842,383.662 309.5,384.5C 308.064,384.755 306.564,385.088 305,385.5C 303.383,383.237 301.55,381.237 299.5,379.5C 299.167,378.5 298.5,377.833 297.5,377.5C 297.167,376.5 296.5,375.833 295.5,375.5C 294.833,374.167 293.833,373.167 292.5,372.5C 292.167,371.167 291.833,371.167 291.5,372.5C 290.5,371.167 289.5,369.833 288.5,368.5C 287.5,366.833 286.167,365.5 284.5,364.5C 283.167,362.5 281.5,360.833 279.5,359.5C 279.167,358.167 278.833,358.167 278.5,359.5C 277.5,358.167 276.5,356.833 275.5,355.5C 271.679,353.296 270.679,349.629 272.5,344.5C 273.5,344.167 274.167,343.5 274.5,342.5 Z"/></g>
<g><path style="opacity:0.008" fill="#fefffe" d="M 272.5,344.5 C 271.833,343.167 271.833,343.167 272.5,344.5 Z"/></g>
<g><path style="opacity:0.02" fill="#fefffe" d="M 212.5,346.5 C 211.833,345.167 211.833,345.167 212.5,346.5 Z"/></g>
<g><path style="opacity:0.024" fill="#fefffe" d="M 285.5,345.5 C 286.833,346.167 286.833,346.167 285.5,345.5 Z"/></g>
<g><path style="opacity:0.008" fill="#fefffe" d="M 209.5,347.5 C 210.833,348.167 210.833,348.167 209.5,347.5 Z"/></g>
<g><path style="opacity:0.016" fill="#fefffe" d="M 290.5,350.5 C 291.833,351.167 291.833,351.167 290.5,350.5 Z"/></g>
<g><path style="opacity:0.004" fill="#fefffe" d="M 243.5,352.5 C 244.833,353.167 244.833,353.167 243.5,352.5 Z"/></g>
<g><path style="opacity:0.979" fill="#fafafa" d="M 243.5,353.5 C 244.431,355.033 245.098,356.7 245.5,358.5C 244.512,361.782 243.846,365.115 243.5,368.5C 241.469,373.766 239.802,379.266 238.5,385C 238.735,385.873 239.069,386.707 239.5,387.5C 238.833,387.833 238.167,388.167 237.5,388.5C 237.709,389.086 238.043,389.586 238.5,390C 236.311,393.885 234.644,398.052 233.5,402.5C 232.167,402.833 232.167,403.167 233.5,403.5C 230.211,405.918 226.878,405.918 223.5,403.5C 222.569,401.967 221.902,400.3 221.5,398.5C 225.059,384.763 228.726,370.763 232.5,356.5C 235.194,352.482 238.861,351.482 243.5,353.5 Z"/></g>
<g><path style="opacity:0.989" fill="#fafafa" d="M 265.5,403.5 C 261.094,388.713 256.761,373.879 252.5,359C 254.815,352.432 259.148,350.765 265.5,354C 265.167,354.333 264.833,354.667 264.5,355C 266.39,359.336 267.89,363.836 269,368.5C 269.556,366.405 270.056,366.238 270.5,368C 270.167,369 269.833,370 269.5,371C 273.034,381.29 275.2,391.79 276,402.5C 272.777,406.017 269.277,406.35 265.5,403.5 Z"/></g>
<g><path style="opacity:0.024" fill="#fefffe" d="M 224.5,354.5 C 225.833,355.167 225.833,355.167 224.5,354.5 Z"/></g>
<g><path style="opacity:0.012" fill="#fefffe" d="M 232.5,356.5 C 231.833,355.167 231.833,355.167 232.5,356.5 Z"/></g>
<g><path style="opacity:0.016" fill="#fefffe" d="M 275.5,355.5 C 274.833,356.167 274.833,356.167 275.5,355.5 Z"/></g>
<g><path style="opacity:0.012" fill="#fefffe" d="M 222.5,356.5 C 223.833,357.167 223.833,357.167 222.5,356.5 Z"/></g>
<g><path style="opacity:0.004" fill="#fefffe" d="M 246.5,358.5 C 247.833,359.167 247.833,359.167 246.5,358.5 Z"/></g>
<g><path style="opacity:0.008" fill="#fefffe" d="M 298.5,358.5 C 299.833,359.167 299.833,359.167 298.5,358.5 Z"/></g>
<g><path style="opacity:0.004" fill="#fefffe" d="M 278.5,359.5 C 278.833,359.5 279.167,359.5 279.5,359.5C 279.315,360.17 278.981,360.17 278.5,359.5 Z"/></g>
<g><path style="opacity:0.047" fill="#e9eae9" d="M 217.5,361.5 C 218.833,362.167 218.833,362.167 217.5,361.5 Z"/></g>
<g><path style="opacity:0.008" fill="#fefffe" d="M 303.5,363.5 C 304.833,364.167 304.833,364.167 303.5,363.5 Z"/></g>
<g><path style="opacity:0.031" fill="#fefffe" d="M 284.5,364.5 C 283.833,365.167 283.833,365.167 284.5,364.5 Z"/></g>
<g><path style="opacity:0.014" fill="#fefffe" d="M 243.5,368.5 C 244.573,369.251 244.74,370.251 244,371.5C 243.517,370.552 243.351,369.552 243.5,368.5 Z"/></g>
<g><path style="opacity:0.02" fill="#fefffe" d="M 288.5,368.5 C 287.833,369.167 287.833,369.167 288.5,368.5 Z"/></g>
<g><path style="opacity:0.012" fill="#fefffe" d="M 209.5,369.5 C 210.833,370.167 210.833,370.167 209.5,369.5 Z"/></g>
<g><path style="opacity:0.004" fill="#fefffe" d="M 291.5,372.5 C 291.833,372.5 292.167,372.5 292.5,372.5C 292.315,373.17 291.981,373.17 291.5,372.5 Z"/></g>
<g><path style="opacity:0.043" fill="#e7e8e7" d="M 204.5,374.5 C 205.833,375.167 205.833,375.167 204.5,374.5 Z"/></g>
<g><path style="opacity:0.012" fill="#fefffe" d="M 184.5,375.5 C 183.833,376.167 183.833,376.167 184.5,375.5 Z"/></g>
<g><path style="opacity:0.016" fill="#fefffe" d="M 295.5,375.5 C 294.833,376.167 294.833,376.167 295.5,375.5 Z"/></g>
<g><path style="opacity:0.004" fill="#fefffe" d="M 202.5,376.5 C 203.833,377.167 203.833,377.167 202.5,376.5 Z"/></g>
<g><path style="opacity:0.012" fill="#fefffe" d="M 184.5,379.5 C 183.475,379.103 183.308,378.437 184,377.5C 184.464,378.094 184.631,378.761 184.5,379.5 Z"/></g>
<g><path style="opacity:0.031" fill="#fefffe" d="M 297.5,377.5 C 296.833,378.167 296.833,378.167 297.5,377.5 Z"/></g>
<g><path style="opacity:0.004" fill="#fefffe" d="M 224.5,378.5 C 225.833,379.167 225.833,379.167 224.5,378.5 Z"/></g>
<g><path style="opacity:0.004" fill="#fefffe" d="M 299.5,379.5 C 298.833,380.167 298.833,380.167 299.5,379.5 Z"/></g>
<g><path style="opacity:0.017" fill="#fefffe" d="M 185.5,381.5 C 185.833,381.5 186.167,381.5 186.5,381.5C 187.167,381.5 187.5,381.833 187.5,382.5C 187.5,382.833 187.5,383.167 187.5,383.5C 185.007,383.869 184.34,383.203 185.5,381.5 Z"/></g>
<g><path style="opacity:0.004" fill="#fefffe" d="M 196.5,382.5 C 197.833,383.167 197.833,383.167 196.5,382.5 Z"/></g>
<g><path style="opacity:0.031" fill="#fefffe" d="M 187.5,383.5 C 187.833,383.5 188.167,383.5 188.5,383.5C 188.5,383.833 188.5,384.167 188.5,384.5C 188.167,384.167 187.833,383.833 187.5,383.5 Z"/></g>
<g><path style="opacity:0.043" fill="#fefffe" d="M 311.5,383.5 C 312.833,384.167 312.833,384.167 311.5,383.5 Z"/></g>
<g><path style="opacity:0.004" fill="#fefffe" d="M 188.5,384.5 C 189.833,385.167 189.833,385.167 188.5,384.5 Z"/></g>
<g><path style="opacity:0.012" fill="#fefffe" d="M 190.5,384.5 C 191.833,385.167 191.833,385.167 190.5,384.5 Z"/></g>
<g><path style="opacity:0.012" fill="#fefffe" d="M 309.5,384.5 C 310.833,385.167 310.833,385.167 309.5,384.5 Z"/></g>
<g><path style="opacity:0.016" fill="#fefffe" d="M 277.5,399.5 C 278.833,400.167 278.833,400.167 277.5,399.5 Z"/></g>
<g><path style="opacity:0.016" fill="#fefffe" d="M 233.5,402.5 C 234.833,403.167 234.833,403.167 233.5,402.5 Z"/></g>
<g><path style="opacity:0.024" fill="#fefffe" d="M 223.5,403.5 C 222.833,404.167 222.833,404.167 223.5,403.5 Z"/></g>
<g><path style="opacity:0.004" fill="#fefffe" d="M 265.5,403.5 C 264.833,404.167 264.833,404.167 265.5,403.5 Z"/></g>
</svg>
