<?xml version="1.0" standalone="no"?>
<svg xmlns:xlink="http://www.w3.org/1999/xlink" id="wave" style="transform:rotate(0deg); transition: 0.3s" viewBox="0 0 1440 140" version="1.1" xmlns="http://www.w3.org/2000/svg"><defs><linearGradient id="sw-gradient-0" x1="0" x2="0" y1="1" y2="0"><stop stop-color="white" offset="0%"/><stop stop-color="rgba(255, 255, 255)" offset="100%"/></linearGradient></defs><path style="transform:translate(0, 0px); opacity:1" fill="url(#sw-gradient-0)" d="M0,0L14.1,21C28.2,42,56,84,85,98C112.9,112,141,98,169,95.7C197.6,93,226,103,254,88.7C282.4,75,311,37,339,32.7C367.1,28,395,56,424,58.3C451.8,61,480,37,508,30.3C536.5,23,565,33,593,42C621.2,51,649,61,678,56C705.9,51,734,33,762,21C790.6,9,819,5,847,18.7C875.3,33,904,65,932,86.3C960,107,988,117,1016,112C1044.7,107,1073,89,1101,70C1129.4,51,1158,33,1186,21C1214.1,9,1242,5,1271,21C1298.8,37,1327,75,1355,84C1383.5,93,1412,75,1440,77C1468.2,79,1496,103,1525,107.3C1552.9,112,1581,98,1609,84C1637.6,70,1666,56,1694,49C1722.4,42,1751,42,1779,35C1807.1,28,1835,14,1864,16.3C1891.8,19,1920,37,1948,56C1976.5,75,2005,93,2019,102.7L2032.9,112L2032.9,140L2018.8,140C2004.7,140,1976,140,1948,140C1920,140,1892,140,1864,140C1835.3,140,1807,140,1779,140C1750.6,140,1722,140,1694,140C1665.9,140,1638,140,1609,140C1581.2,140,1553,140,1525,140C1496.5,140,1468,140,1440,140C1411.8,140,1384,140,1355,140C1327.1,140,1299,140,1271,140C1242.4,140,1214,140,1186,140C1157.6,140,1129,140,1101,140C1072.9,140,1045,140,1016,140C988.2,140,960,140,932,140C903.5,140,875,140,847,140C818.8,140,791,140,762,140C734.1,140,706,140,678,140C649.4,140,621,140,593,140C564.7,140,536,140,508,140C480,140,452,140,424,140C395.3,140,367,140,339,140C310.6,140,282,140,254,140C225.9,140,198,140,169,140C141.2,140,113,140,85,140C56.5,140,28,140,14,140L0,140Z"/><defs><linearGradient id="sw-gradient-1" x1="0" x2="0" y1="1" y2="0"><stop stop-color="white" offset="0%"/><stop stop-color="rgba(255, 255, 255)" offset="100%"/></linearGradient></defs><path style="transform:translate(0, 50px); opacity:0.9" fill="url(#sw-gradient-1)" d="M0,56L14.1,65.3C28.2,75,56,93,85,100.3C112.9,107,141,103,169,86.3C197.6,70,226,42,254,46.7C282.4,51,311,89,339,107.3C367.1,126,395,126,424,119C451.8,112,480,98,508,79.3C536.5,61,565,37,593,39.7C621.2,42,649,70,678,88.7C705.9,107,734,117,762,107.3C790.6,98,819,70,847,56C875.3,42,904,42,932,35C960,28,988,14,1016,18.7C1044.7,23,1073,47,1101,56C1129.4,65,1158,61,1186,49C1214.1,37,1242,19,1271,11.7C1298.8,5,1327,9,1355,14C1383.5,19,1412,23,1440,30.3C1468.2,37,1496,47,1525,60.7C1552.9,75,1581,93,1609,100.3C1637.6,107,1666,103,1694,100.3C1722.4,98,1751,98,1779,91C1807.1,84,1835,70,1864,74.7C1891.8,79,1920,103,1948,100.3C1976.5,98,2005,70,2019,56L2032.9,42L2032.9,140L2018.8,140C2004.7,140,1976,140,1948,140C1920,140,1892,140,1864,140C1835.3,140,1807,140,1779,140C1750.6,140,1722,140,1694,140C1665.9,140,1638,140,1609,140C1581.2,140,1553,140,1525,140C1496.5,140,1468,140,1440,140C1411.8,140,1384,140,1355,140C1327.1,140,1299,140,1271,140C1242.4,140,1214,140,1186,140C1157.6,140,1129,140,1101,140C1072.9,140,1045,140,1016,140C988.2,140,960,140,932,140C903.5,140,875,140,847,140C818.8,140,791,140,762,140C734.1,140,706,140,678,140C649.4,140,621,140,593,140C564.7,140,536,140,508,140C480,140,452,140,424,140C395.3,140,367,140,339,140C310.6,140,282,140,254,140C225.9,140,198,140,169,140C141.2,140,113,140,85,140C56.5,140,28,140,14,140L0,140Z"/></svg>